<svg xmlns="http://www.w3.org/2000/svg" width="14.678" height="16.385" viewBox="0 0 14.678 16.385">
  <g id="Group_5841" data-name="Group 5841" transform="translate(-3654.014 -5278.9) rotate(16)">
    <path id="Path_5161" data-name="Path 5161" d="M3730.51,1738.02a2.481,2.481,0,0,0,4.77,0h-4.77Z" transform="translate(1243.738 2341.154)" fill="#ff3b15" opacity="0.5"/>
    <path id="Path_5162" data-name="Path 5162" d="M3334.1,302.285a3.343,3.343,0,0,0-.89-1.8c-.833-.89-.743-2.167-.773-3.317-.016-.615.316-3.83-2.882-4.788a1.3,1.3,0,1,0-2.6,0c-3.2.957-2.865,4.172-2.882,4.788-.03,1.15.06,2.427-.773,3.317a3.346,3.346,0,0,0-.889,1.8,3.879,3.879,0,0,0-.04.466.439.439,0,0,0,.445.449h10.878a.439.439,0,0,0,.445-.449A3.833,3.833,0,0,0,3334.1,302.285Z" transform="translate(1648.39 3775.304)" fill="#ff3b15"/>
  </g>
</svg>
