<svg xmlns="http://www.w3.org/2000/svg" width="36.408" height="14.341" viewBox="0 0 36.408 14.341">
  <g id="Group_5999" data-name="Group 5999" transform="translate(-1351.521 -876.689)">
    <path id="Path_3255" data-name="Path 3255" d="M94.651,39.768A1.168,1.168,0,1,1,93.483,38.6a1.169,1.169,0,0,1,1.168,1.168" transform="translate(1279.622 844.117)" fill="#fff"/>
    <path id="Path_3256" data-name="Path 3256" d="M125.347,38.6a1.17,1.17,0,1,0,1.168,1.168,1.169,1.169,0,0,0-1.168-1.168" transform="translate(1252.733 844.117)" fill="#fff"/>
    <path id="Path_3257" data-name="Path 3257" d="M34.373,4.605A7.184,7.184,0,0,0,27.679,0H8.729A7.184,7.184,0,0,0,2.035,4.605,2.538,2.538,0,0,0,0,7.171,2.539,2.539,0,0,0,2.035,9.738a7.183,7.183,0,0,0,6.694,4.6h18.95a7.183,7.183,0,0,0,6.694-4.6,2.539,2.539,0,0,0,2.035-2.567,2.538,2.538,0,0,0-2.035-2.566m-5.308,5.683-4.772,3.152a.4.4,0,0,1-.609-.333V10.6H8.678a3.482,3.482,0,1,1,0-6.963h18.95a3.481,3.481,0,0,1,3.481,3.481,3.768,3.768,0,0,1-2.043,3.168" transform="translate(1351.521 876.689)" fill="#fff"/>
  </g>
</svg>
