<svg width="50" height="50" viewBox="0 0 50 50" fill="none" xmlns="http://www.w3.org/2000/svg">
<path d="M41.0417 10H10.2083C8.12499 10 6.25 8.33334 6.25 6.04167C6.25 3.75 7.91665 2.08333 10.2083 2.08333H41.0417C43.125 2.08333 45 3.75 45 6.04167C45 8.33334 43.125 10 41.0417 10Z" fill="#0075C9"/>
<path d="M41.0417 28.75H10.2083C8.12499 28.75 6.25 27.0833 6.25 24.7917C6.25 22.7083 7.91665 20.8333 10.2083 20.8333H41.0417C43.125 20.8333 45 22.5 45 24.7917C45 26.875 43.125 28.75 41.0417 28.75Z" fill="#0075C9"/>
<path d="M41.0417 48.3333H10.2083C8.12499 48.3333 6.25 46.6667 6.25 44.375C6.25 42.2917 7.91665 40.4167 10.2083 40.4167H41.0417C43.125 40.4167 45 42.0833 45 44.375C45 46.6667 43.125 48.3333 41.0417 48.3333Z" fill="#0075C9"/>
</svg>
